<svg width="157" height="36" viewBox="0 0 157 36" fill="none" xmlns="http://www.w3.org/2000/svg">
<path fill-rule="evenodd" clip-rule="evenodd" d="M41.5487 26.5503V10.6311H43.2496L52.254 22.988V10.6311H54.1951V26.5503H52.4574L43.4896 14.1816V26.5503H41.5487ZM78.8442 22.7743V25.3423C78.0438 25.8276 77.2269 26.1968 76.3962 26.4492C75.5661 26.7017 74.7421 26.83 73.9285 26.83C73.1446 26.83 72.3975 26.7097 71.6875 26.4726C70.9769 26.2318 70.3067 25.8783 69.6731 25.4081C68.6592 24.635 67.8689 23.6445 67.305 22.4442C66.7413 21.2398 66.458 19.9347 66.458 18.5207C66.458 17.4523 66.6448 16.4153 67.015 15.4091C67.3852 14.407 67.9154 13.525 68.5991 12.7754C69.3294 11.9712 70.1468 11.3691 71.0505 10.973C71.9576 10.5727 72.9611 10.3745 74.0619 10.3745C74.8323 10.3745 75.5927 10.4756 76.3497 10.6815C77.1035 10.8874 77.8971 11.2098 78.7244 11.6527V14.1273C77.8572 13.5795 77.0434 13.1754 76.2795 12.9114C75.5193 12.6509 74.7789 12.519 74.0619 12.519C72.4645 12.519 71.1471 13.0977 70.103 14.2553C69.0593 15.4129 68.5391 16.8621 68.5391 18.6061C68.5391 20.3311 69.0527 21.7684 70.0798 22.926C71.107 24.0836 72.3942 24.6623 73.9451 24.6623C74.7421 24.6623 75.5459 24.507 76.3597 24.1962C77.1768 23.8854 78.0039 23.4114 78.8442 22.7743ZM81.002 10.6311H82.9429V19.7676C82.9429 20.7856 82.9896 21.508 83.0828 21.9314C83.1797 22.3548 83.3363 22.7239 83.5599 23.0348C83.9634 23.5903 84.4404 24.0019 84.9941 24.2777C85.5475 24.5497 86.1778 24.6857 86.8815 24.6857C88.0655 24.6857 89.0191 24.3284 89.7429 23.6173C90.4665 22.9026 90.8268 21.9625 90.8268 20.7933V10.6311H92.7679V20.8632C92.7679 22.6345 92.2242 24.0718 91.137 25.1752C90.0498 26.2783 88.6323 26.83 86.8815 26.83C85.8444 26.83 84.9105 26.6163 84.0768 26.1891C83.2431 25.7577 82.5427 25.1325 81.9691 24.305C81.6155 23.8116 81.3687 23.2638 81.222 22.6579C81.0753 22.0519 81.002 21.1195 81.002 19.8609V10.6311ZM97.5702 19.5347V24.4759H100.171C101.122 24.4759 101.816 24.2816 102.253 23.8893C102.693 23.497 102.913 22.8869 102.913 22.0519C102.913 21.1856 102.666 20.5486 102.176 20.1444C101.686 19.7367 100.912 19.5347 99.858 19.5347H97.5702ZM95.6294 26.5503V10.6311H99.6314C100.995 10.6311 102.046 10.9923 102.783 11.7111C103.523 12.4334 103.893 13.4551 103.893 14.7836C103.893 15.6035 103.727 16.287 103.397 16.831C103.063 17.3785 102.556 17.7981 101.872 18.0935C102.866 18.3693 103.637 18.8665 104.18 19.585C104.724 20.3077 104.994 21.1817 104.994 22.2149C104.994 23.5358 104.58 24.5885 103.75 25.3731C102.92 26.158 101.796 26.5503 100.375 26.5503H95.6294ZM97.5702 17.4603H98.8909C99.8879 17.4603 100.628 17.2505 101.109 16.8348C101.592 16.4191 101.832 15.7821 101.832 14.9235C101.832 14.1428 101.642 13.5718 101.262 13.2183C100.879 12.8607 100.272 12.6821 99.4377 12.6821H97.5702V17.4603ZM109.823 19.8144H114.082L111.924 14.0805L109.823 19.8144ZM105.317 26.5503L111.24 10.6311H112.665L118.664 26.5503H116.643L114.882 21.8653H109.059L107.322 26.5503H105.317ZM121.929 26.5503V12.7054H116.907V10.6311H128.893V12.7054H123.87V26.5503H121.929ZM131.831 18.6061C131.831 19.4182 131.961 20.1951 132.221 20.9293C132.481 21.6635 132.858 22.316 133.345 22.8869C133.822 23.4543 134.379 23.8931 135.022 24.2001C135.663 24.507 136.333 24.6623 137.03 24.6623C137.744 24.6623 138.418 24.5109 139.048 24.2116C139.675 23.9127 140.239 23.4697 140.732 22.8869C141.219 22.316 141.596 21.6635 141.859 20.9293C142.123 20.1951 142.256 19.4182 142.256 18.6061C142.256 17.7942 142.126 17.0289 141.866 16.3027C141.606 15.5801 141.219 14.9158 140.712 14.3176C140.225 13.7309 139.665 13.2882 139.031 12.9813C138.401 12.6743 137.734 12.519 137.03 12.519C136.35 12.519 135.696 12.6743 135.059 12.9851C134.425 13.2959 133.852 13.7386 133.345 14.3176C132.858 14.8693 132.481 15.5179 132.221 16.2639C131.961 17.0058 131.831 17.7865 131.831 18.6061ZM129.75 18.5207C129.75 17.4603 129.936 16.4269 130.307 15.4287C130.677 14.4263 131.207 13.5407 131.891 12.7754C132.588 11.9946 133.375 11.4003 134.256 10.9884C135.132 10.5804 136.06 10.3745 137.03 10.3745C138.017 10.3745 138.958 10.5804 139.848 10.9961C140.735 11.408 141.519 12.0023 142.196 12.7754C142.906 13.5795 143.44 14.4769 143.8 15.4597C144.157 16.4464 144.337 17.5184 144.337 18.6722C144.337 19.756 144.154 20.7972 143.783 21.7954C143.417 22.7939 142.893 23.6718 142.216 24.4291C141.506 25.2178 140.715 25.8161 139.838 26.2202C138.961 26.6279 138.024 26.83 137.03 26.83C136.06 26.83 135.129 26.6202 134.239 26.2045C133.352 25.785 132.568 25.1944 131.891 24.4291C131.187 23.633 130.654 22.7316 130.293 21.7334C129.93 20.7311 129.75 19.6588 129.75 18.5207ZM146.495 26.5503V10.6311H150.497C151.878 10.6311 152.945 11.0118 153.695 11.7692C154.446 12.5268 154.819 13.6029 154.819 14.9895C154.819 16.0384 154.612 16.8814 154.202 17.5184C153.789 18.1554 153.142 18.6334 152.251 18.9519C152.481 19.0956 152.695 19.2861 152.898 19.5269C153.102 19.7637 153.362 20.164 153.682 20.7272L157 26.5503H154.636L152.291 22.3743C151.587 21.1157 151.02 20.3115 150.587 19.9658C150.157 19.6161 149.64 19.4413 149.043 19.4413H148.456V26.5503H146.495ZM148.456 17.5303H150.077C150.987 17.5303 151.668 17.3243 152.121 16.9163C152.571 16.5045 152.798 15.8793 152.798 15.0361C152.798 14.17 152.585 13.5445 152.154 13.1522C151.724 12.7599 151.031 12.5656 150.077 12.5656H148.456V17.5303Z" fill="white"/>
<path fill-rule="evenodd" clip-rule="evenodd" d="M38.3283 4.7583C39.4927 4.7583 40.4368 5.6976 40.4368 6.85604C40.4368 8.01448 39.4927 8.95378 38.3283 8.95378C37.1639 8.95378 36.2197 8.01448 36.2197 6.85604C36.2197 5.6976 37.1639 4.7583 38.3283 4.7583Z" fill="#FF0808"/>
<path fill-rule="evenodd" clip-rule="evenodd" d="M45.5844 0.498319C35.8689 0.498319 27.9929 8.33423 27.9929 18.0001C27.9929 27.6658 35.8689 35.5017 45.5844 35.5017C55.2999 35.5017 63.1761 27.6658 63.1761 18.0001C63.1761 8.33423 55.2999 0.498319 45.5844 0.498319ZM27.4921 18.0001C27.4921 8.05902 35.5922 0 45.5844 0C55.5765 0 63.6769 8.05902 63.6769 18.0001C63.6769 27.941 55.5765 36 45.5844 36C35.5922 36 27.4921 27.941 27.4921 18.0001Z" fill="white"/>
<path fill-rule="evenodd" clip-rule="evenodd" d="M37.3618 10.6335H39.2945V26.5402H37.3618V10.6335Z" fill="white"/>
<path fill-rule="evenodd" clip-rule="evenodd" d="M0 26.5634V10.6772H2.33429V26.5634H0ZM10.2902 26.5634V12.7475H4.31112V10.6772H18.5796V12.7475H12.6007V26.5634H10.2902Z" fill="white"/>
<path fill-rule="evenodd" clip-rule="evenodd" d="M21.4609 17.085C22.6256 17.085 23.5695 18.024 23.5695 19.1827C23.5695 20.3414 22.6256 21.2804 21.4609 21.2804C20.2963 21.2804 19.3524 20.3414 19.3524 19.1827C19.3524 18.024 20.2963 17.085 21.4609 17.085Z" fill="white"/>
<path d="M70.1924 34.2053V30.3043H70.7113V34.2053H70.1924Z" fill="white"/>
<path d="M74.8174 34.2053V30.7646H73.5256V30.3043H76.6335V30.7646H75.3363V34.2053H74.8174Z" fill="white"/>
<path d="M78.8059 33.0345V32.5529H80.285V33.0345H78.8059Z" fill="white"/>
<path d="M83.0485 34.2053V30.3043H83.5674V32.2389L85.5145 30.3043H86.218L84.5731 31.8849L86.2902 34.2053H85.6055L84.2093 32.2309L83.5674 32.8535V34.2053H83.0485Z" fill="white"/>
<path d="M88.484 34.2053L89.9898 30.3043H90.5488L92.1536 34.2053H91.5625L91.1052 33.0239H89.4656L89.035 34.2053H88.484ZM89.6154 32.6034H90.9447L90.5354 31.523C90.4106 31.1948 90.3179 30.9252 90.2573 30.7141C90.2074 30.9642 90.1369 31.2126 90.046 31.4592L89.6154 32.6034Z" fill="white"/>
<path d="M94.7433 34.2053V30.3043H95.5243L96.4524 33.0664C96.538 33.3237 96.6004 33.5161 96.6396 33.6439C96.6842 33.5019 96.7537 33.2935 96.8482 33.0185L97.787 30.3043H98.4851V34.2053H97.985V30.9403L96.8456 34.2053H96.3775L95.2434 30.8844V34.2053H94.7433Z" fill="white"/>
<path d="M101.083 34.2053L102.589 30.3043H103.148L104.752 34.2053H104.161L103.704 33.0239H102.064L101.634 34.2053H101.083ZM102.214 32.6034H103.543L103.134 31.523C103.009 31.1948 102.917 30.9252 102.856 30.7141C102.806 30.9642 102.736 31.2126 102.645 31.4592L102.214 32.6034Z" fill="white"/>
<path d="M107.182 32.952L107.671 32.9094C107.694 33.1046 107.748 33.2651 107.832 33.3911C107.917 33.5153 108.049 33.6164 108.227 33.6944C108.406 33.7707 108.606 33.8088 108.829 33.8088C109.027 33.8088 109.202 33.7796 109.353 33.721C109.505 33.6625 109.617 33.5827 109.69 33.4815C109.765 33.3787 109.803 33.2669 109.803 33.1463C109.803 33.0239 109.767 32.9174 109.696 32.8269C109.624 32.7347 109.507 32.6575 109.343 32.5954C109.238 32.5546 109.005 32.4916 108.645 32.4065C108.284 32.3196 108.032 32.238 107.888 32.1617C107.7 32.0641 107.56 31.9435 107.468 31.7998C107.377 31.6543 107.331 31.492 107.331 31.3128C107.331 31.1159 107.388 30.9323 107.5 30.762C107.612 30.5899 107.776 30.4595 107.992 30.3708C108.208 30.2821 108.448 30.2378 108.711 30.2378C109.002 30.2378 109.258 30.2848 109.479 30.3788C109.702 30.4711 109.873 30.6076 109.993 30.7886C110.112 30.9695 110.176 31.1744 110.185 31.4033L109.688 31.4405C109.661 31.194 109.57 31.0077 109.415 30.8817C109.262 30.7558 109.034 30.6928 108.733 30.6928C108.419 30.6928 108.19 30.7505 108.045 30.8658C107.903 30.9793 107.832 31.1168 107.832 31.2782C107.832 31.4184 107.882 31.5337 107.984 31.6242C108.084 31.7146 108.344 31.8078 108.765 31.9036C109.188 31.9976 109.477 32.0801 109.634 32.151C109.862 32.2557 110.031 32.3888 110.14 32.5502C110.249 32.7099 110.303 32.8943 110.303 33.1037C110.303 33.3112 110.243 33.5073 110.124 33.6918C110.004 33.8745 109.832 34.0173 109.608 34.1202C109.385 34.2213 109.133 34.2719 108.853 34.2719C108.498 34.2719 108.201 34.2204 107.96 34.1175C107.721 34.0146 107.533 33.8603 107.396 33.6545C107.26 33.447 107.189 33.2128 107.182 32.952Z" fill="white"/>
<path d="M115.776 30.3043H116.295V32.5582C116.295 32.9502 116.25 33.2616 116.161 33.4922C116.072 33.7228 115.91 33.9109 115.677 34.0563C115.445 34.2 115.14 34.2719 114.762 34.2719C114.395 34.2719 114.094 34.2089 113.861 34.0829C113.627 33.957 113.46 33.7751 113.361 33.5374C113.261 33.2979 113.211 32.9715 113.211 32.5582V30.3043H113.73V32.5555C113.73 32.8943 113.761 33.1445 113.823 33.3059C113.888 33.4656 113.996 33.5889 114.15 33.6758C114.305 33.7627 114.494 33.8062 114.717 33.8062C115.098 33.8062 115.37 33.7201 115.532 33.5481C115.695 33.376 115.776 33.0451 115.776 32.5555V30.3043Z" fill="white"/>
<path d="M120.35 34.2053V30.7646H119.058V30.3043H122.166V30.7646H120.869V34.2053H120.35Z" fill="white"/>
<path d="M124.9 34.2053V30.3043H126.639C126.988 30.3043 127.254 30.3398 127.436 30.4107C127.618 30.4799 127.763 30.6032 127.872 30.7806C127.981 30.958 128.035 31.154 128.035 31.3687C128.035 31.6454 127.945 31.8787 127.765 32.0685C127.585 32.2584 127.307 32.379 126.93 32.4304C127.068 32.4961 127.172 32.5608 127.243 32.6247C127.395 32.7631 127.538 32.936 127.674 33.1436L128.356 34.2053H127.703L127.184 33.3937C127.033 33.1596 126.908 32.9804 126.81 32.8562C126.712 32.732 126.624 32.6451 126.545 32.5954C126.469 32.5458 126.39 32.5112 126.31 32.4916C126.251 32.4792 126.155 32.473 126.021 32.473H125.419V34.2053H124.9ZM125.419 32.026H126.534C126.772 32.026 126.957 32.002 127.091 31.9541C127.225 31.9045 127.326 31.8264 127.396 31.72C127.465 31.6117 127.5 31.4947 127.5 31.3687C127.5 31.1842 127.432 31.0325 127.297 30.9137C127.163 30.7948 126.951 30.7354 126.66 30.7354H125.419V32.026Z" fill="white"/>
<path d="M130.611 34.2053L132.117 30.3043H132.676L134.281 34.2053H133.69L133.232 33.0239H131.593L131.162 34.2053H130.611ZM131.743 32.6034H133.072L132.663 31.523C132.538 31.1948 132.445 30.9252 132.385 30.7141C132.335 30.9642 132.264 31.2126 132.173 31.4592L131.743 32.6034Z" fill="white"/>
<path d="M136.961 34.2053V33.6598H137.51V34.2053H136.961Z" fill="white"/>
<path d="M143.4 32.8376L143.919 32.968C143.81 33.392 143.614 33.7157 143.33 33.9392C143.049 34.161 142.704 34.2719 142.295 34.2719C141.873 34.2719 141.529 34.1867 141.263 34.0164C140.999 33.8443 140.797 33.596 140.658 33.2713C140.521 32.9467 140.452 32.5981 140.452 32.2255C140.452 31.8193 140.53 31.4654 140.685 31.1638C140.842 30.8604 141.064 30.6307 141.351 30.4746C141.64 30.3167 141.957 30.2378 142.303 30.2378C142.696 30.2378 143.025 30.3371 143.293 30.5358C143.56 30.7345 143.747 31.0139 143.852 31.374L143.341 31.4938C143.25 31.2099 143.118 31.0033 142.945 30.8738C142.772 30.7442 142.555 30.6795 142.293 30.6795C141.991 30.6795 141.739 30.7513 141.536 30.895C141.334 31.0387 141.192 31.2321 141.11 31.4751C141.028 31.7164 140.987 31.9657 140.987 32.2229C140.987 32.5546 141.036 32.8447 141.132 33.093C141.23 33.3396 141.381 33.5241 141.586 33.6465C141.792 33.7689 142.014 33.8301 142.252 33.8301C142.543 33.8301 142.789 33.7468 142.991 33.58C143.192 33.4132 143.329 33.1658 143.4 32.8376Z" fill="white"/>
<path d="M146.594 32.3054C146.594 31.6579 146.769 31.1514 147.118 30.7859C147.468 30.4187 147.919 30.2351 148.472 30.2351C148.834 30.2351 149.16 30.3211 149.451 30.4932C149.741 30.6653 149.962 30.9057 150.114 31.2144C150.267 31.5213 150.344 31.8699 150.344 32.2601C150.344 32.6557 150.264 33.0097 150.103 33.3219C149.943 33.6341 149.715 33.8709 149.421 34.0324C149.127 34.192 148.81 34.2719 148.469 34.2719C148.1 34.2719 147.77 34.1832 147.479 34.0058C147.189 33.8284 146.968 33.5862 146.819 33.2793C146.669 32.9724 146.594 32.6478 146.594 32.3054ZM147.129 32.3134C147.129 32.7835 147.256 33.1542 147.509 33.4257C147.764 33.6953 148.083 33.8301 148.466 33.8301C148.857 33.8301 149.178 33.6935 149.429 33.4203C149.682 33.1471 149.809 32.7595 149.809 32.2575C149.809 31.9399 149.755 31.6632 149.646 31.4272C149.539 31.1895 149.381 31.0059 149.172 30.8764C148.966 30.7451 148.733 30.6795 148.474 30.6795C148.107 30.6795 147.791 30.8055 147.525 31.0574C147.261 31.3075 147.129 31.7262 147.129 32.3134Z" fill="white"/>
<path d="M153.19 34.2053V30.3043H153.971L154.899 33.0664C154.985 33.3237 155.047 33.5161 155.087 33.6439C155.131 33.5019 155.201 33.2935 155.295 33.0185L156.234 30.3043H156.932V34.2053H156.432V30.9403L155.293 34.2053H154.825L153.69 30.8844V34.2053H153.19Z" fill="white"/>
</svg>
