<svg xmlns="http://www.w3.org/2000/svg" xmlns:xlink="http://www.w3.org/1999/xlink" version="1.1" width="1000" height="1000" viewBox="0 0 1000 1000" xml:space="preserve">
<desc>Created with Fabric.js 3.5.0</desc>
<defs>
</defs>
<g transform="matrix(-35.8967 0 0 35.8967 500 500)" id="328416" clip-path="url(#CLIPPATH_1)">
<clipPath id="CLIPPATH_1">
	<path transform="matrix(1 0 0 1 -0.0406 -0.0517) translate(-15.0313, -14.3828)" id="id1" d="M 2.328125 4.222656 L 27.734375 4.222656 L 27.734375 24.542969 L 2.328125 24.542969 Z M 2.328125 4.222656" stroke-linecap="round"/>
</clipPath>
<path style="stroke: none; stroke-width: 1; stroke-dasharray: none; stroke-linecap: butt; stroke-dashoffset: 0; stroke-linejoin: miter; stroke-miterlimit: 4; is-custom-font: none; font-file-url: none; fill: rgb(240,123,97); fill-rule: nonzero; opacity: 1;" vector-effect="non-scaling-stroke" transform=" translate(-15.0718, -14.4346)" d="M 27.5 7.53125 L 24.464844 4.542969 C 24.15625 4.238281 23.65625 4.238281 23.347656 4.542969 L 11.035156 16.667969 L 6.824219 12.523438 C 6.527344 12.230469 6 12.230469 5.703125 12.523438 L 2.640625 15.539062 C 2.332031 15.84375 2.332031 16.335938 2.640625 16.640625 L 10.445312 24.324219 C 10.59375 24.472656 10.796875 24.554688 11.007812 24.554688 C 11.214844 24.554688 11.417969 24.472656 11.566406 24.324219 L 27.5 8.632812 C 27.648438 8.488281 27.734375 8.289062 27.734375 8.082031 C 27.734375 7.875 27.648438 7.679688 27.5 7.53125 Z M 27.5 7.53125" stroke-linecap="round"/>
</g>
</svg>
